<svg width="10" height="16" viewBox="0 0 10 16" fill="none" xmlns="http://www.w3.org/2000/svg">
<path fill-rule="evenodd" clip-rule="evenodd" d="M0.399509 3.19988C-0.0423188 3.53125 -0.131862 4.15805 0.199509 4.59988C0.53088 5.04171 1.15768 5.13125 1.59951 4.79988L3.99975 2.99969C3.99975 2.99976 3.99975 2.99982 3.99975 2.99988L3.99975 14.9999C3.99975 15.5522 4.44747 15.9999 4.99975 15.9999C5.55204 15.9999 5.99975 15.5522 5.99975 14.9999L5.99975 3.00006L8.39951 4.79988C8.84134 5.13125 9.46814 5.04171 9.79951 4.59988C10.1309 4.15805 10.0413 3.53125 9.59951 3.19988L5.59951 0.199878C5.24395 -0.0667879 4.75506 -0.0667879 4.39951 0.199878L0.399509 3.19988Z" fill="white"/>
</svg>
